<svg id="Layer_1" data-name="Layer 1" xmlns="http://www.w3.org/2000/svg" viewBox="0 0 56.67 30.46"><defs><style>.cls-1{fill:#fff;}</style></defs><title>braco</title><path class="cls-1" d="M4.44,19.31V2A1.81,1.81,0,0,0,3.83.54,2.34,2.34,0,0,0,2.22,0,2.36,2.36,0,0,0,.63.54,1.79,1.79,0,0,0,0,2V19.15S4.5,19.24,4.44,19.31Z"/><path class="cls-1" d="M46.11,22.45a1.83,1.83,0,0,1-.26.21,3.56,3.56,0,0,1-1.84.48,3.59,3.59,0,0,1-1.85-.48,3.41,3.41,0,0,1-1.27-1.34,3.87,3.87,0,0,1-.45-1.7v-.49a3.88,3.88,0,0,1,.45-1.71,3.31,3.31,0,0,1,1.27-1.35A3.59,3.59,0,0,1,44,15.59a3.56,3.56,0,0,1,1.84.48,2.78,2.78,0,0,1,.27.21,5.36,5.36,0,0,1,1.23-1.45,5.36,5.36,0,0,0-.49-.34A5.64,5.64,0,0,0,44,13.78a5.75,5.75,0,0,0-2.88.71l-.06,0a6,6,0,0,0-.63.46,5.19,5.19,0,0,0-1,1c-.1.15-.2.29-.28.44a5.9,5.9,0,0,0-.71,2.9,5.8,5.8,0,0,0,.71,2.88,4.93,4.93,0,0,0,1.28,1.51v0a5,5,0,0,0,.64.46l.05,0A5.85,5.85,0,0,0,44,25h0a6.94,6.94,0,0,0,1-.09l.24,0a5.31,5.31,0,0,0,1-.29,5,5,0,0,0,.62-.29,5.59,5.59,0,0,0,.47-.33A5.47,5.47,0,0,1,46.11,22.45Z"/><path class="cls-1" d="M29.84,16.28a5.39,5.39,0,0,1,1.23-1.45,3.54,3.54,0,0,0-.49-.34,5.6,5.6,0,0,0-2.84-.71,5.7,5.7,0,0,0-2.88.71,3.93,3.93,0,0,0-.69.5h0a1.05,1.05,0,0,0-.28-.75,1,1,0,0,0-1.41,0,1,1,0,0,0-.28.75V19c0,.11,0,.22,0,.33s0,.22,0,.34v4.23a1,1,0,0,0,.28.73,1,1,0,0,0,1.41,0,1,1,0,0,0,.28-.73v-.17h0V19.9a2.09,2.09,0,0,1,0-.25V19.1a3.88,3.88,0,0,1,.44-1.68,3.4,3.4,0,0,1,1.28-1.35,3.79,3.79,0,0,1,3.69,0A1.83,1.83,0,0,1,29.84,16.28Z"/><path class="cls-1" d="M38.94,22.37a5.82,5.82,0,0,1-.64-1.91,4.22,4.22,0,0,1-.32.86,3.48,3.48,0,0,1-1.27,1.34,3.59,3.59,0,0,1-1.85.48A3.56,3.56,0,0,1,33,22.66a4.33,4.33,0,0,1-.47-.38,3.42,3.42,0,0,1-.81-1,3.92,3.92,0,0,1-.45-1.82c0-.05,0-.08,0-.13s0-.08,0-.12a3.93,3.93,0,0,1,.45-1.83,3.46,3.46,0,0,1,.8-1,4.45,4.45,0,0,1,.48-.38,3.56,3.56,0,0,1,1.84-.48,3.59,3.59,0,0,1,1.85.48A3.38,3.38,0,0,1,38,17.42a4.22,4.22,0,0,1,.32.86,6,6,0,0,1,.64-1.93c.1-.17.21-.33.32-.49a6.13,6.13,0,0,0-.79-.82A4.79,4.79,0,0,0,36,13.89l-.52-.08c-.21,0-.41,0-.62,0a5.7,5.7,0,0,0-2.88.71l-.1.06c-.2.13-.4.26-.59.41A5.1,5.1,0,0,0,30,16.47a5.9,5.9,0,0,0-.7,2.9,6.4,6.4,0,0,0,0,.77c0,.07,0,.13,0,.2a3.85,3.85,0,0,0,.08.47h0A5.45,5.45,0,0,0,30,22.28a5.2,5.2,0,0,0,2,2,2.06,2.06,0,0,0,.26.12h0l.56.23.06,0,.55.16.23,0,.44.07a5.85,5.85,0,0,0,.73,0h0a7.08,7.08,0,0,0,1.05-.09,5.47,5.47,0,0,0,1.81-.62,5.86,5.86,0,0,0,.74-.54v.24a1,1,0,0,0,.28.73.91.91,0,0,0,.7.3.94.94,0,0,0,.72-.3,1,1,0,0,0,.24-.6A5.36,5.36,0,0,1,38.94,22.37Z"/><path class="cls-1" d="M56,16.47a6,6,0,0,0-.39-.59A5,5,0,0,0,54,14.5a5.64,5.64,0,0,0-2.85-.72,5.75,5.75,0,0,0-2.88.72l-.35.23-.29.2a5,5,0,0,0-1.33,1.55,6.24,6.24,0,0,0,0,5.78,5.12,5.12,0,0,0,1.27,1.5h0a4.82,4.82,0,0,0,.7.48,5.8,5.8,0,0,0,2.88.71h.22a6.31,6.31,0,0,0,.76-.07l.37-.07a6,6,0,0,0,.83-.24,5.42,5.42,0,0,0,.69-.32,5.14,5.14,0,0,0,2-2,5.79,5.79,0,0,0,.7-2.88A5.8,5.8,0,0,0,56,16.47Zm-1.27,3.16h0a4.22,4.22,0,0,1-.44,1.69,3.58,3.58,0,0,1-.85,1h0a2.65,2.65,0,0,1-.42.33,3.7,3.7,0,0,1-3.68,0,3.14,3.14,0,0,1-.86-.76,3.48,3.48,0,0,1-.43-.58,0,0,0,0,0,0,0,3.85,3.85,0,0,1-.29-.76.14.14,0,0,1,0-.07,3.87,3.87,0,0,1-.12-.85s0,0,0-.06v-.36s0,0,0-.06a5.23,5.23,0,0,1,.11-.82.88.88,0,0,0,0-.15,3.32,3.32,0,0,1,.24-.62s0-.08,0-.12a2.94,2.94,0,0,1,.46-.62,4.11,4.11,0,0,1,.29-.3l.06-.05a3.54,3.54,0,0,1,.47-.38,3.79,3.79,0,0,1,3.69,0,3.2,3.2,0,0,1,.73.59,3.32,3.32,0,0,1,.54.77,4.16,4.16,0,0,1,.46,1.95A2,2,0,0,1,54.69,19.63Z"/><path class="cls-1" d="M22.7,29.15a1.33,1.33,0,0,1-.48-.49,1.48,1.48,0,0,1-.17-.7,1.43,1.43,0,0,1,.16-.69,1.25,1.25,0,0,1,.45-.49,1.22,1.22,0,0,1,.65-.18,1.32,1.32,0,0,1,.57.12,1.13,1.13,0,0,1,.45.36.14.14,0,0,1,0,.09.1.1,0,0,1-.07.1.11.11,0,0,1-.08,0,.14.14,0,0,1-.11-.06,1,1,0,0,0-.8-.37.92.92,0,0,0-.5.14.89.89,0,0,0-.35.39,1.31,1.31,0,0,0-.12.56,1.13,1.13,0,0,0,.14.56,1,1,0,0,0,.36.4,1.09,1.09,0,0,0,.54.14,1,1,0,0,0,.69-.24.16.16,0,0,1,.11-.05.12.12,0,0,1,.09,0,.14.14,0,0,1,0,.11.09.09,0,0,1,0,.08,1.09,1.09,0,0,1-.4.25,1.53,1.53,0,0,1-.49.08A1.3,1.3,0,0,1,22.7,29.15Z"/><path class="cls-1" d="M26,29.15a1.28,1.28,0,0,1-.49-.49,1.38,1.38,0,0,1-.18-.7,1.4,1.4,0,0,1,.18-.7,1.28,1.28,0,0,1,.49-.49,1.38,1.38,0,0,1,.7-.18,1.4,1.4,0,0,1,.7.18,1.28,1.28,0,0,1,.49.49,1.4,1.4,0,0,1,.18.7,1.38,1.38,0,0,1-.18.7,1.28,1.28,0,0,1-.49.49,1.4,1.4,0,0,1-.7.18A1.38,1.38,0,0,1,26,29.15Zm1.25-.23a1.11,1.11,0,0,0,.52-1,1,1,0,0,0-.14-.55,1,1,0,0,0-.38-.4,1.15,1.15,0,0,0-1.1,0,1.15,1.15,0,0,0-.39.4,1.17,1.17,0,0,0,0,1.11,1.15,1.15,0,0,0,.39.4,1.15,1.15,0,0,0,1.1,0Z"/><path class="cls-1" d="M31.08,26.73a1.14,1.14,0,0,1,.44.43,1.34,1.34,0,0,1,.16.68v1.32a.18.18,0,0,1,0,.1.15.15,0,0,1-.11,0,.12.12,0,0,1-.1,0,.14.14,0,0,1-.05-.1V27.84a.9.9,0,0,0-.26-.71.92.92,0,0,0-.68-.25A1.2,1.2,0,0,0,30,27a.79.79,0,0,0-.34.28.7.7,0,0,0-.12.4v1.5a.18.18,0,0,1,0,.1.14.14,0,0,1-.11,0,.12.12,0,0,1-.1,0,.14.14,0,0,1-.05-.1V26.77a.14.14,0,0,1,.05-.11.12.12,0,0,1,.1,0,.14.14,0,0,1,.11,0,.18.18,0,0,1,0,.11V27a1.26,1.26,0,0,1,.4-.32,1.32,1.32,0,0,1,.53-.11A1.47,1.47,0,0,1,31.08,26.73Z"/><path class="cls-1" d="M33.26,29.23a1.1,1.1,0,0,1-.45-.31.11.11,0,0,1,0-.08.14.14,0,0,1,.06-.12l.09,0a.16.16,0,0,1,.11.05,1.24,1.24,0,0,0,1.36.17.44.44,0,0,0,.18-.36c0-.26-.25-.42-.75-.49a1.63,1.63,0,0,1-.71-.26.56.56,0,0,1-.25-.46.65.65,0,0,1,.27-.56,1.24,1.24,0,0,1,1.62.24.24.24,0,0,1,0,.09.13.13,0,0,1-.07.11l-.08,0a.14.14,0,0,1-.12-.06.82.82,0,0,0-.7-.32.78.78,0,0,0-.48.13.39.39,0,0,0-.17.32.35.35,0,0,0,.17.31,1.35,1.35,0,0,0,.56.18,1.47,1.47,0,0,1,.75.27.66.66,0,0,1,.23.5.56.56,0,0,1-.15.39.83.83,0,0,1-.38.27,1.58,1.58,0,0,1-1.08,0Z"/><path class="cls-1" d="M38.3,26.66a.18.18,0,0,1,0,.11v2.39a.18.18,0,0,1,0,.1.14.14,0,0,1-.11,0,.12.12,0,0,1-.1,0,.14.14,0,0,1-.05-.1V28.9a1.13,1.13,0,0,1-.4.32,1.18,1.18,0,0,1-.53.12,1.34,1.34,0,0,1-.64-.15,1.13,1.13,0,0,1-.44-.43,1.41,1.41,0,0,1-.16-.67V26.77a.15.15,0,1,1,.3,0v1.32a.91.91,0,0,0,.26.71,1,1,0,0,0,.68.24,1.09,1.09,0,0,0,.48-.1.75.75,0,0,0,.33-.28.69.69,0,0,0,.12-.39v-1.5a.14.14,0,0,1,.05-.11.12.12,0,0,1,.1,0A.14.14,0,0,1,38.3,26.66Z"/><path class="cls-1" d="M39.69,29.08a.92.92,0,0,1-.18-.59V25.62a.16.16,0,0,1,.05-.11.15.15,0,0,1,.1,0,.18.18,0,0,1,.11,0,.21.21,0,0,1,0,.11v2.87a.68.68,0,0,0,.09.37.3.3,0,0,0,.25.15h.12a.1.1,0,0,1,.09,0,.16.16,0,0,1,0,.11.17.17,0,0,1,0,.1.15.15,0,0,1-.11,0h-.1A.55.55,0,0,1,39.69,29.08Z"/><path class="cls-1" d="M42.65,29.05a.16.16,0,0,1,0,.11.18.18,0,0,1,0,.1.15.15,0,0,1-.11,0h-.12a1,1,0,0,1-.48-.12.75.75,0,0,1-.32-.34,1,1,0,0,1-.12-.48V27h-.38a.15.15,0,0,1-.1,0,.18.18,0,0,1,0-.1.13.13,0,0,1,0-.09.12.12,0,0,1,.1,0h.38v-.8a.15.15,0,0,1,0-.11.13.13,0,0,1,.1,0,.16.16,0,0,1,.12,0,.21.21,0,0,1,0,.11v.8h.64a.13.13,0,0,1,.1,0,.13.13,0,0,1,0,.09.18.18,0,0,1,0,.1.17.17,0,0,1-.1,0H41.8v1.38a.6.6,0,0,0,.17.46.62.62,0,0,0,.46.18h.11A.16.16,0,0,1,42.65,29.05Z"/><path class="cls-1" d="M45.61,26.77a1.31,1.31,0,0,1,.5.49,1.4,1.4,0,0,1,.18.7v1.2a.18.18,0,0,1,0,.1.17.17,0,0,1-.22,0,.18.18,0,0,1,0-.1v-.39a1.09,1.09,0,0,1-.44.41,1.33,1.33,0,0,1-.63.15,1.38,1.38,0,0,1-.7-.18,1.31,1.31,0,0,1-.5-.49,1.48,1.48,0,0,1-.17-.7,1.51,1.51,0,0,1,.17-.7,1.31,1.31,0,0,1,.5-.49,1.43,1.43,0,0,1,1.39,0Zm-.14,2.15a1,1,0,0,0,.38-.4,1.17,1.17,0,0,0,0-1.11,1,1,0,0,0-.38-.4,1.15,1.15,0,0,0-.55-.14,1.12,1.12,0,0,0-.55.14,1.15,1.15,0,0,0-.39.4,1.17,1.17,0,0,0,0,1.11,1.15,1.15,0,0,0,.39.4,1.12,1.12,0,0,0,.55.14A1.15,1.15,0,0,0,45.47,28.92Z"/><path class="cls-1" d="M49.28,26.73a1.21,1.21,0,0,1,.44.43,1.45,1.45,0,0,1,.16.68v1.32a.18.18,0,0,1,0,.1.17.17,0,0,1-.22,0,.18.18,0,0,1,0-.1V27.84a.9.9,0,0,0-.26-.71.92.92,0,0,0-.68-.25,1.25,1.25,0,0,0-.48.1.83.83,0,0,0-.33.28.7.7,0,0,0-.12.4v1.5a.18.18,0,0,1,0,.1.17.17,0,0,1-.22,0,.18.18,0,0,1,0-.1V26.77a.18.18,0,0,1,0-.11.17.17,0,0,1,.22,0,.18.18,0,0,1,0,.11V27a1.26,1.26,0,0,1,.4-.32,1.32,1.32,0,0,1,.53-.11A1.47,1.47,0,0,1,49.28,26.73Z"/><path class="cls-1" d="M51.61,29.15a1.19,1.19,0,0,1-.48-.49A1.38,1.38,0,0,1,51,28a1.44,1.44,0,0,1,.17-.69,1.12,1.12,0,0,1,.45-.49,1.17,1.17,0,0,1,.64-.18,1.4,1.4,0,0,1,.58.12,1.28,1.28,0,0,1,.45.36.19.19,0,0,1,0,.09.1.1,0,0,1-.07.1.11.11,0,0,1-.07,0,.14.14,0,0,1-.12-.06,1,1,0,0,0-.8-.37.94.94,0,0,0-.5.14.87.87,0,0,0-.34.39,1.31,1.31,0,0,0-.12.56,1.13,1.13,0,0,0,.13.56,1,1,0,0,0,.37.4,1,1,0,0,0,.54.14,1,1,0,0,0,.69-.24.14.14,0,0,1,.1-.05.1.1,0,0,1,.09,0,.14.14,0,0,1,0,.11.09.09,0,0,1,0,.08,1.28,1.28,0,0,1-.4.25,1.62,1.62,0,0,1-.49.08A1.3,1.3,0,0,1,51.61,29.15Z"/><path class="cls-1" d="M56.62,26.74a.12.12,0,0,1,0,.07L55,30.38a.14.14,0,0,1-.11.08h-.07c-.07,0-.1-.07-.1-.11a.25.25,0,0,1,0-.07l.49-1.06,0,0L54.1,26.82a.19.19,0,0,1,0-.08.14.14,0,0,1,.08-.11l.08,0a.11.11,0,0,1,.11.09l1,2.17,1-2.17c0-.06.07-.09.11-.09l.07,0A.11.11,0,0,1,56.62,26.74Z"/><path class="cls-1" d="M13,10.38V15a5.5,5.5,0,0,1,3.57-1.18,5.64,5.64,0,0,1,2.85.71,5.1,5.1,0,0,1,2.45,3.19A11,11,0,0,0,13,8.41Z"/><path class="cls-1" d="M14.75,22.66a3.77,3.77,0,0,0,3.68,0,3.35,3.35,0,0,0,1.27-1.34,4.08,4.08,0,0,0,.45-1.94,4.18,4.18,0,0,0-.45-1.95,3.35,3.35,0,0,0-1.27-1.34,3.7,3.7,0,0,0-3.68,0,3.35,3.35,0,0,0-1.27,1.34A4,4,0,0,0,13,19.17v.17a.13.13,0,0,1,0,.06,4,4,0,0,0,.47,1.92A3.35,3.35,0,0,0,14.75,22.66Z"/><path class="cls-1" d="M21.42,22.26a5.18,5.18,0,0,1-2,2,5.79,5.79,0,0,1-2.87.71,5.79,5.79,0,0,1-2.87-.71,5.07,5.07,0,0,1-2-2A5.83,5.83,0,0,1,11,19.38c0-.07,0-.13,0-.2v-11h0A11,11,0,1,0,21.8,21.36,5.92,5.92,0,0,1,21.42,22.26Z"/></svg>