<?xml version="1.0" standalone="no"?>
<!DOCTYPE svg PUBLIC "-//W3C//DTD SVG 20010904//EN"
 "http://www.w3.org/TR/2001/REC-SVG-20010904/DTD/svg10.dtd">
<svg version="1.0" xmlns="http://www.w3.org/2000/svg"
 width="524.000000pt" height="524.000000pt" viewBox="0 0 524.000000 524.000000"
 preserveAspectRatio="xMidYMid meet">
<metadata>
Created by potrace 1.11, written by Peter Selinger 2001-2013
</metadata>
<g transform="translate(0.000000,524.000000) scale(0.100000,-0.100000)"
fill="#000000" stroke="none">
<path d="M1013 5224 c-126 -26 -234 -113 -269 -217 -17 -49 -18 -141 -18
-1567 0 -1462 3 -1691 23 -1810 18 -107 22 -126 42 -205 135 -532 530 -1005
1037 -1242 144 -67 340 -130 467 -148 22 -3 46 -8 54 -11 24 -8 190 -18 296
-18 94 0 274 12 285 19 3 2 23 6 44 9 144 23 351 90 496 162 476 234 842 663
990 1159 33 111 43 156 36 162 -3 3 -6 -1 -6 -10 0 -25 -49 -124 -94 -192
-112 -167 -285 -296 -486 -359 -105 -34 -127 -37 -285 -43 -114 -4 -157 -1
-235 15 -224 46 -399 146 -535 304 -109 126 -172 266 -211 468 -4 19 -7 503
-8 1075 l-1 1040 -60 -1 c-240 -3 -475 -57 -714 -162 -102 -45 -254 -130 -318
-178 -17 -13 -35 -24 -40 -24 -4 0 -8 339 -8 752 -1 414 -3 764 -7 778 -20 79
-67 143 -139 190 -93 60 -213 79 -336 54z"/>
<path d="M2979 3758 c-3 -99 -1 -1110 3 -1113 3 -3 35 15 73 40 86 56 213 110
313 131 98 21 298 25 402 8 339 -54 608 -274 726 -594 23 -62 15 0 -15 122
-134 538 -477 979 -963 1238 -132 70 -263 119 -433 165 -105 28 -105 28 -106
3z"/>
<path d="M3545 2529 c-93 -10 -197 -43 -269 -87 -291 -175 -387 -596 -208
-915 111 -199 324 -312 564 -301 71 3 196 30 212 45 6 5 16 9 23 9 18 0 111
62 154 102 88 83 156 208 183 338 13 61 15 258 3 305 -32 128 -78 227 -137
297 -96 112 -238 186 -390 204 -25 3 -49 6 -55 8 -5 1 -41 -1 -80 -5z"/>
</g>
</svg>
