<?xml version="1.0" standalone="no"?>
<!DOCTYPE svg PUBLIC "-//W3C//DTD SVG 20010904//EN"
 "http://www.w3.org/TR/2001/REC-SVG-20010904/DTD/svg10.dtd">
<svg version="1.0" xmlns="http://www.w3.org/2000/svg"
 width="477.000000pt" height="477.000000pt" viewBox="0 0 477.000000 477.000000"
 preserveAspectRatio="xMidYMid meet">
<metadata>
Created by potrace 1.11, written by Peter Selinger 2001-2013
</metadata>
<g transform="translate(0.000000,477.000000) scale(0.100000,-0.100000)"
fill="#000000" stroke="none">
<path d="M875 4751 c-69 -23 -118 -55 -159 -103 -71 -82 -67 31 -63 -1618 2
-817 6 -1505 10 -1530 93 -584 441 -1063 960 -1319 169 -82 339 -136 533 -167
67 -10 386 -13 449 -3 33 5 75 11 92 14 110 16 269 64 393 118 217 94 377 203
545 372 129 129 220 249 301 398 48 89 124 271 138 330 18 78 16 79 -19 17
-21 -36 -44 -73 -53 -82 -8 -10 -13 -18 -9 -18 10 0 -136 -138 -178 -168 -92
-66 -265 -132 -385 -147 -63 -8 -227 -9 -280 -1 -119 18 -207 47 -307 100
-184 98 -323 267 -392 476 -22 66 -25 80 -39 185 -4 34 -8 467 -8 964 l1 903
-115 -5 c-63 -3 -131 -8 -150 -11 -252 -39 -493 -131 -699 -267 -41 -27 -77
-49 -80 -49 -3 0 -6 309 -7 688 0 501 -4 698 -12 729 -20 69 -82 137 -158 174
-58 27 -79 32 -163 34 -71 3 -109 -1 -146 -14z"/>
<path d="M2719 3423 c0 -10 1 -76 1 -148 1 -71 2 -293 2 -492 0 -200 3 -363 5
-363 2 0 19 11 37 25 18 14 36 25 40 25 5 0 20 8 34 19 27 18 147 69 186 77
19 5 66 14 91 18 6 1 15 4 20 8 13 7 292 3 330 -6 109 -25 161 -43 243 -83 50
-25 92 -50 92 -54 0 -5 6 -9 13 -9 19 0 148 -127 192 -190 22 -30 42 -57 45
-60 3 -3 6 -9 7 -15 5 -23 52 -109 53 -95 0 21 -35 149 -67 240 -36 104 -102
239 -166 340 -57 91 -60 95 -150 201 -223 264 -538 463 -879 554 -111 30 -128
31 -129 8z"/>
<path d="M3170 2299 c-58 -10 -220 -83 -220 -99 0 -6 -5 -10 -10 -10 -12 0
-80 -63 -80 -74 0 -4 -10 -17 -21 -29 -29 -29 -83 -149 -100 -217 -19 -79 -16
-252 5 -325 29 -104 75 -185 146 -255 66 -67 174 -133 235 -144 17 -3 53 -9
80 -14 282 -48 546 124 624 408 17 59 20 96 17 189 -4 117 -6 134 -27 200 -58
180 -217 327 -394 367 -45 11 -203 12 -255 3z"/>
</g>
</svg>
